<svg aria-roledescription="er" role="graphics-document document" viewBox="-9.050000190734863 0 619.8250122070312 1531.5" style="max-width: 100%;" xmlns="http://www.w3.org/2000/svg" width="100%" id="graph-div" height="100%" xmlns:xlink="http://www.w3.org/1999/xlink"><style>@import url("https://cdnjs.cloudflare.com/ajax/libs/font-awesome/6.4.2/css/all.min.css");'</style><style>#graph-div{font-family:"trebuchet ms",verdana,arial,sans-serif;font-size:16px;fill:#ccc;}#graph-div .error-icon{fill:#a44141;}#graph-div .error-text{fill:#ddd;stroke:#ddd;}#graph-div .edge-thickness-normal{stroke-width:2px;}#graph-div .edge-thickness-thick{stroke-width:3.5px;}#graph-div .edge-pattern-solid{stroke-dasharray:0;}#graph-div .edge-pattern-dashed{stroke-dasharray:3;}#graph-div .edge-pattern-dotted{stroke-dasharray:2;}#graph-div .marker{fill:lightgrey;stroke:lightgrey;}#graph-div .marker.cross{stroke:lightgrey;}#graph-div svg{font-family:"trebuchet ms",verdana,arial,sans-serif;font-size:16px;}#graph-div .entityBox{fill:#1f2020;stroke:#81B1DB;}#graph-div .attributeBoxOdd{fill:hsl(0, 0%, 32%);stroke:#81B1DB;}#graph-div .attributeBoxEven{fill:hsl(0, 0%, 22%);stroke:#81B1DB;}#graph-div .relationshipLabelBox{fill:hsl(20, 1.5873015873%, 12.3529411765%);opacity:0.7;background-color:hsl(20, 1.5873015873%, 12.3529411765%);}#graph-div .relationshipLabelBox rect{opacity:0.5;}#graph-div .relationshipLine{stroke:lightgrey;}#graph-div .entityTitleText{text-anchor:middle;font-size:18px;fill:#ccc;}#graph-div #MD_PARENT_START{fill:#f5f5f5!important;stroke:lightgrey!important;stroke-width:1;}#graph-div #MD_PARENT_END{fill:#f5f5f5!important;stroke:lightgrey!important;stroke-width:1;}#graph-div :root{--mermaid-font-family:"trebuchet ms",verdana,arial,sans-serif;}</style><g></g><defs><marker orient="auto" markerHeight="240" markerWidth="190" refY="7" refX="0" id="MD_PARENT_START"><path d="M 18,7 L9,13 L1,7 L9,1 Z"></path></marker></defs><defs><marker orient="auto" markerHeight="28" markerWidth="20" refY="7" refX="19" id="MD_PARENT_END"><path d="M 18,7 L9,13 L1,7 L9,1 Z"></path></marker></defs><defs><marker orient="auto" markerHeight="18" markerWidth="18" refY="9" refX="0" id="ONLY_ONE_START"><path d="M9,0 L9,18 M15,0 L15,18" fill="none" stroke="gray"></path></marker></defs><defs><marker orient="auto" markerHeight="18" markerWidth="18" refY="9" refX="18" id="ONLY_ONE_END"><path d="M3,0 L3,18 M9,0 L9,18" fill="none" stroke="gray"></path></marker></defs><defs><marker orient="auto" markerHeight="18" markerWidth="30" refY="9" refX="0" id="ZERO_OR_ONE_START"><circle r="6" cy="9" cx="21" fill="white" stroke="gray"></circle><path d="M9,0 L9,18" fill="none" stroke="gray"></path></marker></defs><defs><marker orient="auto" markerHeight="18" markerWidth="30" refY="9" refX="30" id="ZERO_OR_ONE_END"><circle r="6" cy="9" cx="9" fill="white" stroke="gray"></circle><path d="M21,0 L21,18" fill="none" stroke="gray"></path></marker></defs><defs><marker orient="auto" markerHeight="36" markerWidth="45" refY="18" refX="18" id="ONE_OR_MORE_START"><path d="M0,18 Q 18,0 36,18 Q 18,36 0,18 M42,9 L42,27" fill="none" stroke="gray"></path></marker></defs><defs><marker orient="auto" markerHeight="36" markerWidth="45" refY="18" refX="27" id="ONE_OR_MORE_END"><path d="M3,9 L3,27 M9,18 Q27,0 45,18 Q27,36 9,18" fill="none" stroke="gray"></path></marker></defs><defs><marker orient="auto" markerHeight="36" markerWidth="57" refY="18" refX="18" id="ZERO_OR_MORE_START"><circle r="6" cy="18" cx="48" fill="white" stroke="gray"></circle><path d="M0,18 Q18,0 36,18 Q18,36 0,18" fill="none" stroke="gray"></path></marker></defs><defs><marker orient="auto" markerHeight="36" markerWidth="57" refY="18" refX="39" id="ZERO_OR_MORE_END"><circle r="6" cy="18" cx="9" fill="white" stroke="gray"></circle><path d="M21,18 Q39,0 57,18 Q39,36 21,18" fill="none" stroke="gray"></path></marker></defs><path marker-start="url(#ONLY_ONE_START)" marker-end="url(#ONE_OR_MORE_END)" stroke-dasharray="8,8" style="stroke: gray; fill: none;" d="M167.077,112L182.723,124.083C198.368,136.167,229.659,160.333,251.132,180.75C272.604,201.167,284.259,217.833,290.086,226.167L295.913,234.5" class="er relationshipLine"></path><path marker-start="url(#ONLY_ONE_START)" marker-end="url(#ZERO_OR_MORE_END)" stroke-dasharray="8,8" style="stroke: gray; fill: none;" d="M285.346,323.814L239.613,340.095C193.881,356.376,102.415,388.938,61.79,413.552C21.165,438.167,31.38,454.833,36.488,463.167L41.595,471.5" class="er relationshipLine"></path><path marker-start="url(#ONLY_ONE_START)" marker-end="url(#ONE_OR_MORE_END)" stroke-dasharray="8,8" style="stroke: gray; fill: none;" d="M133.792,631L138.318,639.333C142.845,647.667,151.897,664.333,166.386,681C180.874,697.667,200.798,714.333,210.76,722.667L220.722,731" class="er relationshipLine"></path><path marker-start="url(#ZERO_OR_ONE_START)" marker-end="url(#ZERO_OR_ONE_END)" stroke-dasharray="8,8" style="stroke: gray; fill: none;" d="M41.595,631L36.488,639.333C31.38,647.667,21.165,664.333,16.058,688.667C10.95,713,10.95,745,10.95,777C10.95,809,10.95,841,55.682,872.643C100.414,904.285,189.878,935.57,234.61,951.213L279.342,966.855" class="er relationshipLine"></path><path marker-start="url(#ONLY_ONE_START)" marker-end="url(#ONE_OR_MORE_END)" stroke-dasharray="8,8" style="stroke: gray; fill: none;" d="M275.712,823L275.712,831.333C275.712,839.667,275.712,856.333,280.924,873C286.135,889.667,296.558,906.333,301.769,914.667L306.98,923" class="er relationshipLine"></path><path marker-start="url(#ONLY_ONE_START)" marker-end="url(#ZERO_OR_MORE_END)" stroke-dasharray="8,8" style="stroke: gray; fill: none;" d="M349.817,1060L349.817,1068.333C349.817,1076.667,349.817,1093.333,349.817,1110C349.817,1126.667,349.817,1143.333,349.817,1151.667L349.817,1160" class="er relationshipLine"></path><path marker-start="url(#ONLY_ONE_START)" marker-end="url(#ONLY_ONE_END)" stroke-dasharray="8,8" style="stroke: gray; fill: none;" d="M349.817,1297L349.817,1305.333C349.817,1313.667,349.817,1330.333,363.772,1349.734C377.726,1369.134,405.636,1391.268,419.591,1402.334L433.546,1413.401" class="er relationshipLine"></path><path marker-start="url(#ONLY_ONE_START)" marker-end="url(#ZERO_OR_MORE_END)" stroke-dasharray="8,8" style="stroke: gray; fill: none;" d="M402.279,332.158L432.137,347.048C461.994,361.939,521.71,391.719,551.567,428.235C581.425,464.75,581.425,508,581.425,551.25C581.425,594.5,581.425,637.75,581.425,675.375C581.425,713,581.425,745,581.425,777C581.425,809,581.425,841,581.425,876.75C581.425,912.5,581.425,952,581.425,991.5C581.425,1031,581.425,1070.5,581.425,1110C581.425,1149.5,581.425,1189,581.425,1228.5C581.425,1268,581.425,1307.5,573.937,1335.583C566.449,1363.667,551.473,1380.333,543.985,1388.667L536.497,1397" class="er relationshipLine"></path><path marker-start="url(#ONLY_ONE_START)" marker-end="url(#ZERO_OR_MORE_END)" stroke-dasharray="8,8" style="stroke: gray; fill: none;" d="M322.083,100.131L286.894,114.192C251.706,128.254,181.328,156.377,146.139,190.188C110.95,224,110.95,263.5,110.95,303C110.95,342.5,110.95,382,109.635,410.083C108.32,438.167,105.69,454.833,104.375,463.167L103.06,471.5" class="er relationshipLine"></path><path marker-start="url(#ONLY_ONE_START)" marker-end="url(#ZERO_OR_MORE_END)" stroke-dasharray="8,8" style="stroke: gray; fill: none;" d="M436.6,129.248L446.74,138.457C456.881,147.665,477.161,166.083,471.441,187.525C465.721,208.967,434,233.435,418.14,245.669L402.279,257.902" class="er relationshipLine"></path><path marker-start="url(#ONLY_ONE_START)" marker-end="url(#ZERO_OR_MORE_END)" stroke-dasharray="8,8" style="stroke: gray; fill: none;" d="M285.346,355.146L272.947,366.205C260.547,377.264,235.749,399.382,215.016,419.416C194.283,439.45,177.617,457.4,169.283,466.374L160.95,475.349" class="er relationshipLine"></path><path marker-start="url(#ONLY_ONE_START)" marker-end="url(#ZERO_OR_MORE_END)" stroke-dasharray="8,8" style="stroke: gray; fill: none;" d="M324.816,371.5L322.505,379.833C320.194,388.167,315.572,404.833,313.261,434.792C310.95,464.75,310.95,508,310.95,551.25C310.95,594.5,310.95,637.75,307.891,667.708C304.832,697.667,298.715,714.333,295.656,722.667L292.597,731" class="er relationshipLine"></path><path marker-start="url(#ONLY_ONE_START)" marker-end="url(#ZERO_OR_MORE_END)" stroke-dasharray="8,8" style="stroke: gray; fill: none;" d="M402.279,370.676L409.597,379.146C416.915,387.617,431.551,404.559,438.869,434.654C446.187,464.75,446.187,508,446.187,551.25C446.187,594.5,446.187,637.75,446.187,675.375C446.187,713,446.187,745,446.187,777C446.187,809,446.187,841,439.41,865.333C432.633,889.667,419.079,906.333,412.302,914.667L405.525,923" class="er relationshipLine"></path><g transform="translate(72.08333015441895,42.5 )" id="entity-Player-8a4d8822-5447-5bf3-9bb1-c82c7616821b"><rect height="69.5" width="100" y="0" x="0" class="er entityBox"></rect><text transform="translate(50,12.25)" style="dominant-baseline: middle; text-anchor: middle; font-size: 12px;" y="0" x="0" id="text-entity-Player-8a4d8822-5447-5bf3-9bb1-c82c7616821b" class="er entityLabel">Player</text><rect height="22.5" width="38.32222207387289" y="24.5" x="0" class="er attributeBoxOdd"></rect><text transform="translate(5,35.75)" style="dominant-baseline: middle; font-size: 10.2px;" y="0" x="0" id="text-entity-Player-8a4d8822-5447-5bf3-9bb1-c82c7616821b-attr-1-type" class="er entityLabel">string</text><rect height="22.5" width="37.538889249165855" y="24.5" x="38.32222207387289" class="er attributeBoxOdd"></rect><text transform="translate(43.32222207387289,35.75)" style="dominant-baseline: middle; font-size: 10.2px;" y="0" x="0" id="text-entity-Player-8a4d8822-5447-5bf3-9bb1-c82c7616821b-attr-1-name" class="er entityLabel">id</text><rect height="22.5" width="24.138888676961262" y="24.5" x="75.86111132303874" class="er attributeBoxOdd"></rect><text transform="translate(80.86111132303874,35.75)" style="dominant-baseline: middle; font-size: 10.2px;" y="0" x="0" id="text-entity-Player-8a4d8822-5447-5bf3-9bb1-c82c7616821b-attr-1-key" class="er entityLabel">PK</text><rect height="22.5" width="38.32222207387289" y="47" x="0" class="er attributeBoxEven"></rect><text transform="translate(5,58.25)" style="dominant-baseline: middle; font-size: 10.2px;" y="0" x="0" id="text-entity-Player-8a4d8822-5447-5bf3-9bb1-c82c7616821b-attr-2-type" class="er entityLabel">string</text><rect height="22.5" width="37.538889249165855" y="47" x="38.32222207387289" class="er attributeBoxEven"></rect><text transform="translate(43.32222207387289,58.25)" style="dominant-baseline: middle; font-size: 10.2px;" y="0" x="0" id="text-entity-Player-8a4d8822-5447-5bf3-9bb1-c82c7616821b-attr-2-name" class="er entityLabel">name</text><rect height="22.5" width="24.138888676961262" y="47" x="75.86111132303874" class="er attributeBoxEven"></rect><text transform="translate(80.86111132303874,58.25)" style="dominant-baseline: middle; font-size: 10.2px;" y="0" x="0" id="text-entity-Player-8a4d8822-5447-5bf3-9bb1-c82c7616821b-attr-2-key" class="er entityLabel"></text></g><g transform="translate(285.3458309173584,234.5 )" id="entity-Team-bf3f5416-76e3-5dc0-89d0-070d82786f59"><rect height="137" width="116.93333148956299" y="0" x="0" class="er entityBox"></rect><text transform="translate(58.466665744781494,12.25)" style="dominant-baseline: middle; text-anchor: middle; font-size: 12px;" y="0" x="0" id="text-entity-Team-bf3f5416-76e3-5dc0-89d0-070d82786f59" class="er entityLabel">Team</text><rect height="22.5" width="36.75" y="24.5" x="0" class="er attributeBoxOdd"></rect><text transform="translate(5,35.75)" style="dominant-baseline: middle; font-size: 10.2px;" y="0" x="0" id="text-entity-Team-bf3f5416-76e3-5dc0-89d0-070d82786f59-attr-1-type" class="er entityLabel">string</text><rect height="22.5" width="57.61666488647461" y="24.5" x="36.75" class="er attributeBoxOdd"></rect><text transform="translate(41.75,35.75)" style="dominant-baseline: middle; font-size: 10.2px;" y="0" x="0" id="text-entity-Team-bf3f5416-76e3-5dc0-89d0-070d82786f59-attr-1-name" class="er entityLabel">id</text><rect height="22.5" width="22.56666660308838" y="24.5" x="94.36666488647461" class="er attributeBoxOdd"></rect><text transform="translate(99.36666488647461,35.75)" style="dominant-baseline: middle; font-size: 10.2px;" y="0" x="0" id="text-entity-Team-bf3f5416-76e3-5dc0-89d0-070d82786f59-attr-1-key" class="er entityLabel">PK</text><rect height="22.5" width="36.75" y="47" x="0" class="er attributeBoxEven"></rect><text transform="translate(5,58.25)" style="dominant-baseline: middle; font-size: 10.2px;" y="0" x="0" id="text-entity-Team-bf3f5416-76e3-5dc0-89d0-070d82786f59-attr-2-type" class="er entityLabel">string</text><rect height="22.5" width="57.61666488647461" y="47" x="36.75" class="er attributeBoxEven"></rect><text transform="translate(41.75,58.25)" style="dominant-baseline: middle; font-size: 10.2px;" y="0" x="0" id="text-entity-Team-bf3f5416-76e3-5dc0-89d0-070d82786f59-attr-2-name" class="er entityLabel">name</text><rect height="22.5" width="22.56666660308838" y="47" x="94.36666488647461" class="er attributeBoxEven"></rect><text transform="translate(99.36666488647461,58.25)" style="dominant-baseline: middle; font-size: 10.2px;" y="0" x="0" id="text-entity-Team-bf3f5416-76e3-5dc0-89d0-070d82786f59-attr-2-key" class="er entityLabel"></text><rect height="22.5" width="36.75" y="69.5" x="0" class="er attributeBoxOdd"></rect><text transform="translate(5,80.75)" style="dominant-baseline: middle; font-size: 10.2px;" y="0" x="0" id="text-entity-Team-bf3f5416-76e3-5dc0-89d0-070d82786f59-attr-3-type" class="er entityLabel">string</text><rect height="22.5" width="57.61666488647461" y="69.5" x="36.75" class="er attributeBoxOdd"></rect><text transform="translate(41.75,80.75)" style="dominant-baseline: middle; font-size: 10.2px;" y="0" x="0" id="text-entity-Team-bf3f5416-76e3-5dc0-89d0-070d82786f59-attr-3-name" class="er entityLabel">userId</text><rect height="22.5" width="22.56666660308838" y="69.5" x="94.36666488647461" class="er attributeBoxOdd"></rect><text transform="translate(99.36666488647461,80.75)" style="dominant-baseline: middle; font-size: 10.2px;" y="0" x="0" id="text-entity-Team-bf3f5416-76e3-5dc0-89d0-070d82786f59-attr-3-key" class="er entityLabel">FK</text><rect height="22.5" width="36.75" y="92" x="0" class="er attributeBoxEven"></rect><text transform="translate(5,103.25)" style="dominant-baseline: middle; font-size: 10.2px;" y="0" x="0" id="text-entity-Team-bf3f5416-76e3-5dc0-89d0-070d82786f59-attr-4-type" class="er entityLabel">string</text><rect height="22.5" width="57.61666488647461" y="92" x="36.75" class="er attributeBoxEven"></rect><text transform="translate(41.75,103.25)" style="dominant-baseline: middle; font-size: 10.2px;" y="0" x="0" id="text-entity-Team-bf3f5416-76e3-5dc0-89d0-070d82786f59-attr-4-name" class="er entityLabel">playerOne</text><rect height="22.5" width="22.56666660308838" y="92" x="94.36666488647461" class="er attributeBoxEven"></rect><text transform="translate(99.36666488647461,103.25)" style="dominant-baseline: middle; font-size: 10.2px;" y="0" x="0" id="text-entity-Team-bf3f5416-76e3-5dc0-89d0-070d82786f59-attr-4-key" class="er entityLabel">FK</text><rect height="22.5" width="36.75" y="114.5" x="0" class="er attributeBoxOdd"></rect><text transform="translate(5,125.75)" style="dominant-baseline: middle; font-size: 10.2px;" y="0" x="0" id="text-entity-Team-bf3f5416-76e3-5dc0-89d0-070d82786f59-attr-5-type" class="er entityLabel">string</text><rect height="22.5" width="57.61666488647461" y="114.5" x="36.75" class="er attributeBoxOdd"></rect><text transform="translate(41.75,125.75)" style="dominant-baseline: middle; font-size: 10.2px;" y="0" x="0" id="text-entity-Team-bf3f5416-76e3-5dc0-89d0-070d82786f59-attr-5-name" class="er entityLabel">playerTwo</text><rect height="22.5" width="22.56666660308838" y="114.5" x="94.36666488647461" class="er attributeBoxOdd"></rect><text transform="translate(99.36666488647461,125.75)" style="dominant-baseline: middle; font-size: 10.2px;" y="0" x="0" id="text-entity-Team-bf3f5416-76e3-5dc0-89d0-070d82786f59-attr-5-key" class="er entityLabel">FK</text></g><g transform="translate(20,471.5 )" id="entity-Match-bb868d25-f1db-5893-b0b3-486d1ccf5a14"><rect height="159.5" width="140.9499979019165" y="0" x="0" class="er entityBox"></rect><text transform="translate(70.47499895095825,12.25)" style="dominant-baseline: middle; text-anchor: middle; font-size: 12px;" y="0" x="0" id="text-entity-Match-bb868d25-f1db-5893-b0b3-486d1ccf5a14" class="er entityLabel">Match</text><rect height="22.5" width="36.75" y="24.5" x="0" class="er attributeBoxOdd"></rect><text transform="translate(5,35.75)" style="dominant-baseline: middle; font-size: 10.2px;" y="0" x="0" id="text-entity-Match-bb868d25-f1db-5893-b0b3-486d1ccf5a14-attr-1-type" class="er entityLabel">string</text><rect height="22.5" width="81.63333129882812" y="24.5" x="36.75" class="er attributeBoxOdd"></rect><text transform="translate(41.75,35.75)" style="dominant-baseline: middle; font-size: 10.2px;" y="0" x="0" id="text-entity-Match-bb868d25-f1db-5893-b0b3-486d1ccf5a14-attr-1-name" class="er entityLabel">id</text><rect height="22.5" width="22.56666660308838" y="24.5" x="118.38333129882812" class="er attributeBoxOdd"></rect><text transform="translate(123.38333129882812,35.75)" style="dominant-baseline: middle; font-size: 10.2px;" y="0" x="0" id="text-entity-Match-bb868d25-f1db-5893-b0b3-486d1ccf5a14-attr-1-key" class="er entityLabel">PK</text><rect height="22.5" width="36.75" y="47" x="0" class="er attributeBoxEven"></rect><text transform="translate(5,58.25)" style="dominant-baseline: middle; font-size: 10.2px;" y="0" x="0" id="text-entity-Match-bb868d25-f1db-5893-b0b3-486d1ccf5a14-attr-2-type" class="er entityLabel">int</text><rect height="22.5" width="81.63333129882812" y="47" x="36.75" class="er attributeBoxEven"></rect><text transform="translate(41.75,58.25)" style="dominant-baseline: middle; font-size: 10.2px;" y="0" x="0" id="text-entity-Match-bb868d25-f1db-5893-b0b3-486d1ccf5a14-attr-2-name" class="er entityLabel">numberOfSets</text><rect height="22.5" width="22.56666660308838" y="47" x="118.38333129882812" class="er attributeBoxEven"></rect><text transform="translate(123.38333129882812,58.25)" style="dominant-baseline: middle; font-size: 10.2px;" y="0" x="0" id="text-entity-Match-bb868d25-f1db-5893-b0b3-486d1ccf5a14-attr-2-key" class="er entityLabel"></text><rect height="22.5" width="36.75" y="69.5" x="0" class="er attributeBoxOdd"></rect><text transform="translate(5,80.75)" style="dominant-baseline: middle; font-size: 10.2px;" y="0" x="0" id="text-entity-Match-bb868d25-f1db-5893-b0b3-486d1ccf5a14-attr-3-type" class="er entityLabel">string</text><rect height="22.5" width="81.63333129882812" y="69.5" x="36.75" class="er attributeBoxOdd"></rect><text transform="translate(41.75,80.75)" style="dominant-baseline: middle; font-size: 10.2px;" y="0" x="0" id="text-entity-Match-bb868d25-f1db-5893-b0b3-486d1ccf5a14-attr-3-name" class="er entityLabel">userId</text><rect height="22.5" width="22.56666660308838" y="69.5" x="118.38333129882812" class="er attributeBoxOdd"></rect><text transform="translate(123.38333129882812,80.75)" style="dominant-baseline: middle; font-size: 10.2px;" y="0" x="0" id="text-entity-Match-bb868d25-f1db-5893-b0b3-486d1ccf5a14-attr-3-key" class="er entityLabel">FK</text><rect height="22.5" width="36.75" y="92" x="0" class="er attributeBoxEven"></rect><text transform="translate(5,103.25)" style="dominant-baseline: middle; font-size: 10.2px;" y="0" x="0" id="text-entity-Match-bb868d25-f1db-5893-b0b3-486d1ccf5a14-attr-4-type" class="er entityLabel">string</text><rect height="22.5" width="81.63333129882812" y="92" x="36.75" class="er attributeBoxEven"></rect><text transform="translate(41.75,103.25)" style="dominant-baseline: middle; font-size: 10.2px;" y="0" x="0" id="text-entity-Match-bb868d25-f1db-5893-b0b3-486d1ccf5a14-attr-4-name" class="er entityLabel">teamOne</text><rect height="22.5" width="22.56666660308838" y="92" x="118.38333129882812" class="er attributeBoxEven"></rect><text transform="translate(123.38333129882812,103.25)" style="dominant-baseline: middle; font-size: 10.2px;" y="0" x="0" id="text-entity-Match-bb868d25-f1db-5893-b0b3-486d1ccf5a14-attr-4-key" class="er entityLabel">FK</text><rect height="22.5" width="36.75" y="114.5" x="0" class="er attributeBoxOdd"></rect><text transform="translate(5,125.75)" style="dominant-baseline: middle; font-size: 10.2px;" y="0" x="0" id="text-entity-Match-bb868d25-f1db-5893-b0b3-486d1ccf5a14-attr-5-type" class="er entityLabel">string</text><rect height="22.5" width="81.63333129882812" y="114.5" x="36.75" class="er attributeBoxOdd"></rect><text transform="translate(41.75,125.75)" style="dominant-baseline: middle; font-size: 10.2px;" y="0" x="0" id="text-entity-Match-bb868d25-f1db-5893-b0b3-486d1ccf5a14-attr-5-name" class="er entityLabel">teamTwo</text><rect height="22.5" width="22.56666660308838" y="114.5" x="118.38333129882812" class="er attributeBoxOdd"></rect><text transform="translate(123.38333129882812,125.75)" style="dominant-baseline: middle; font-size: 10.2px;" y="0" x="0" id="text-entity-Match-bb868d25-f1db-5893-b0b3-486d1ccf5a14-attr-5-key" class="er entityLabel">FK</text><rect height="22.5" width="36.75" y="137" x="0" class="er attributeBoxEven"></rect><text transform="translate(5,148.25)" style="dominant-baseline: middle; font-size: 10.2px;" y="0" x="0" id="text-entity-Match-bb868d25-f1db-5893-b0b3-486d1ccf5a14-attr-6-type" class="er entityLabel">string</text><rect height="22.5" width="81.63333129882812" y="137" x="36.75" class="er attributeBoxEven"></rect><text transform="translate(41.75,148.25)" style="dominant-baseline: middle; font-size: 10.2px;" y="0" x="0" id="text-entity-Match-bb868d25-f1db-5893-b0b3-486d1ccf5a14-attr-6-name" class="er entityLabel">winner(teamId)</text><rect height="22.5" width="22.56666660308838" y="137" x="118.38333129882812" class="er attributeBoxEven"></rect><text transform="translate(123.38333129882812,148.25)" style="dominant-baseline: middle; font-size: 10.2px;" y="0" x="0" id="text-entity-Match-bb868d25-f1db-5893-b0b3-486d1ccf5a14-attr-6-key" class="er entityLabel">FK</text></g><g transform="translate(205.23749923706055,731 )" id="entity-Set-52ee8eeb-60bf-544e-b31f-1f23d15fa54d"><rect height="92" width="140.9499979019165" y="0" x="0" class="er entityBox"></rect><text transform="translate(70.47499895095825,12.25)" style="dominant-baseline: middle; text-anchor: middle; font-size: 12px;" y="0" x="0" id="text-entity-Set-52ee8eeb-60bf-544e-b31f-1f23d15fa54d" class="er entityLabel">Set</text><rect height="22.5" width="36.75" y="24.5" x="0" class="er attributeBoxOdd"></rect><text transform="translate(5,35.75)" style="dominant-baseline: middle; font-size: 10.2px;" y="0" x="0" id="text-entity-Set-52ee8eeb-60bf-544e-b31f-1f23d15fa54d-attr-1-type" class="er entityLabel">string</text><rect height="22.5" width="81.63333129882812" y="24.5" x="36.75" class="er attributeBoxOdd"></rect><text transform="translate(41.75,35.75)" style="dominant-baseline: middle; font-size: 10.2px;" y="0" x="0" id="text-entity-Set-52ee8eeb-60bf-544e-b31f-1f23d15fa54d-attr-1-name" class="er entityLabel">id</text><rect height="22.5" width="22.56666660308838" y="24.5" x="118.38333129882812" class="er attributeBoxOdd"></rect><text transform="translate(123.38333129882812,35.75)" style="dominant-baseline: middle; font-size: 10.2px;" y="0" x="0" id="text-entity-Set-52ee8eeb-60bf-544e-b31f-1f23d15fa54d-attr-1-key" class="er entityLabel">PK</text><rect height="22.5" width="36.75" y="47" x="0" class="er attributeBoxEven"></rect><text transform="translate(5,58.25)" style="dominant-baseline: middle; font-size: 10.2px;" y="0" x="0" id="text-entity-Set-52ee8eeb-60bf-544e-b31f-1f23d15fa54d-attr-2-type" class="er entityLabel">string</text><rect height="22.5" width="81.63333129882812" y="47" x="36.75" class="er attributeBoxEven"></rect><text transform="translate(41.75,58.25)" style="dominant-baseline: middle; font-size: 10.2px;" y="0" x="0" id="text-entity-Set-52ee8eeb-60bf-544e-b31f-1f23d15fa54d-attr-2-name" class="er entityLabel">matchId</text><rect height="22.5" width="22.56666660308838" y="47" x="118.38333129882812" class="er attributeBoxEven"></rect><text transform="translate(123.38333129882812,58.25)" style="dominant-baseline: middle; font-size: 10.2px;" y="0" x="0" id="text-entity-Set-52ee8eeb-60bf-544e-b31f-1f23d15fa54d-attr-2-key" class="er entityLabel">FK</text><rect height="22.5" width="36.75" y="69.5" x="0" class="er attributeBoxOdd"></rect><text transform="translate(5,80.75)" style="dominant-baseline: middle; font-size: 10.2px;" y="0" x="0" id="text-entity-Set-52ee8eeb-60bf-544e-b31f-1f23d15fa54d-attr-3-type" class="er entityLabel">string</text><rect height="22.5" width="81.63333129882812" y="69.5" x="36.75" class="er attributeBoxOdd"></rect><text transform="translate(41.75,80.75)" style="dominant-baseline: middle; font-size: 10.2px;" y="0" x="0" id="text-entity-Set-52ee8eeb-60bf-544e-b31f-1f23d15fa54d-attr-3-name" class="er entityLabel">winner(teamId)</text><rect height="22.5" width="22.56666660308838" y="69.5" x="118.38333129882812" class="er attributeBoxOdd"></rect><text transform="translate(123.38333129882812,80.75)" style="dominant-baseline: middle; font-size: 10.2px;" y="0" x="0" id="text-entity-Set-52ee8eeb-60bf-544e-b31f-1f23d15fa54d-attr-3-key" class="er entityLabel">FK</text></g><g transform="translate(279.34166526794434,923 )" id="entity-Game-87e52c75-2f34-5ffb-97f0-d4ba8ef70a3a"><rect height="137" width="140.9499979019165" y="0" x="0" class="er entityBox"></rect><text transform="translate(70.47499895095825,12.25)" style="dominant-baseline: middle; text-anchor: middle; font-size: 12px;" y="0" x="0" id="text-entity-Game-87e52c75-2f34-5ffb-97f0-d4ba8ef70a3a" class="er entityLabel">Game</text><rect height="22.5" width="36.75" y="24.5" x="0" class="er attributeBoxOdd"></rect><text transform="translate(5,35.75)" style="dominant-baseline: middle; font-size: 10.2px;" y="0" x="0" id="text-entity-Game-87e52c75-2f34-5ffb-97f0-d4ba8ef70a3a-attr-1-type" class="er entityLabel">string</text><rect height="22.5" width="81.63333129882812" y="24.5" x="36.75" class="er attributeBoxOdd"></rect><text transform="translate(41.75,35.75)" style="dominant-baseline: middle; font-size: 10.2px;" y="0" x="0" id="text-entity-Game-87e52c75-2f34-5ffb-97f0-d4ba8ef70a3a-attr-1-name" class="er entityLabel">id</text><rect height="22.5" width="22.56666660308838" y="24.5" x="118.38333129882812" class="er attributeBoxOdd"></rect><text transform="translate(123.38333129882812,35.75)" style="dominant-baseline: middle; font-size: 10.2px;" y="0" x="0" id="text-entity-Game-87e52c75-2f34-5ffb-97f0-d4ba8ef70a3a-attr-1-key" class="er entityLabel">PK</text><rect height="22.5" width="36.75" y="47" x="0" class="er attributeBoxEven"></rect><text transform="translate(5,58.25)" style="dominant-baseline: middle; font-size: 10.2px;" y="0" x="0" id="text-entity-Game-87e52c75-2f34-5ffb-97f0-d4ba8ef70a3a-attr-2-type" class="er entityLabel">string</text><rect height="22.5" width="81.63333129882812" y="47" x="36.75" class="er attributeBoxEven"></rect><text transform="translate(41.75,58.25)" style="dominant-baseline: middle; font-size: 10.2px;" y="0" x="0" id="text-entity-Game-87e52c75-2f34-5ffb-97f0-d4ba8ef70a3a-attr-2-name" class="er entityLabel">serverId</text><rect height="22.5" width="22.56666660308838" y="47" x="118.38333129882812" class="er attributeBoxEven"></rect><text transform="translate(123.38333129882812,58.25)" style="dominant-baseline: middle; font-size: 10.2px;" y="0" x="0" id="text-entity-Game-87e52c75-2f34-5ffb-97f0-d4ba8ef70a3a-attr-2-key" class="er entityLabel">FK</text><rect height="22.5" width="36.75" y="69.5" x="0" class="er attributeBoxOdd"></rect><text transform="translate(5,80.75)" style="dominant-baseline: middle; font-size: 10.2px;" y="0" x="0" id="text-entity-Game-87e52c75-2f34-5ffb-97f0-d4ba8ef70a3a-attr-3-type" class="er entityLabel">string</text><rect height="22.5" width="81.63333129882812" y="69.5" x="36.75" class="er attributeBoxOdd"></rect><text transform="translate(41.75,80.75)" style="dominant-baseline: middle; font-size: 10.2px;" y="0" x="0" id="text-entity-Game-87e52c75-2f34-5ffb-97f0-d4ba8ef70a3a-attr-3-name" class="er entityLabel">winner(teamId)</text><rect height="22.5" width="22.56666660308838" y="69.5" x="118.38333129882812" class="er attributeBoxOdd"></rect><text transform="translate(123.38333129882812,80.75)" style="dominant-baseline: middle; font-size: 10.2px;" y="0" x="0" id="text-entity-Game-87e52c75-2f34-5ffb-97f0-d4ba8ef70a3a-attr-3-key" class="er entityLabel">FK</text><rect height="22.5" width="36.75" y="92" x="0" class="er attributeBoxEven"></rect><text transform="translate(5,103.25)" style="dominant-baseline: middle; font-size: 10.2px;" y="0" x="0" id="text-entity-Game-87e52c75-2f34-5ffb-97f0-d4ba8ef70a3a-attr-4-type" class="er entityLabel">string</text><rect height="22.5" width="81.63333129882812" y="92" x="36.75" class="er attributeBoxEven"></rect><text transform="translate(41.75,103.25)" style="dominant-baseline: middle; font-size: 10.2px;" y="0" x="0" id="text-entity-Game-87e52c75-2f34-5ffb-97f0-d4ba8ef70a3a-attr-4-name" class="er entityLabel">setId</text><rect height="22.5" width="22.56666660308838" y="92" x="118.38333129882812" class="er attributeBoxEven"></rect><text transform="translate(123.38333129882812,103.25)" style="dominant-baseline: middle; font-size: 10.2px;" y="0" x="0" id="text-entity-Game-87e52c75-2f34-5ffb-97f0-d4ba8ef70a3a-attr-4-key" class="er entityLabel">FK</text><rect height="22.5" width="36.75" y="114.5" x="0" class="er attributeBoxOdd"></rect><text transform="translate(5,125.75)" style="dominant-baseline: middle; font-size: 10.2px;" y="0" x="0" id="text-entity-Game-87e52c75-2f34-5ffb-97f0-d4ba8ef70a3a-attr-5-type" class="er entityLabel">string</text><rect height="22.5" width="81.63333129882812" y="114.5" x="36.75" class="er attributeBoxOdd"></rect><text transform="translate(41.75,125.75)" style="dominant-baseline: middle; font-size: 10.2px;" y="0" x="0" id="text-entity-Game-87e52c75-2f34-5ffb-97f0-d4ba8ef70a3a-attr-5-name" class="er entityLabel">matchId</text><rect height="22.5" width="22.56666660308838" y="114.5" x="118.38333129882812" class="er attributeBoxOdd"></rect><text transform="translate(123.38333129882812,125.75)" style="dominant-baseline: middle; font-size: 10.2px;" y="0" x="0" id="text-entity-Game-87e52c75-2f34-5ffb-97f0-d4ba8ef70a3a-attr-5-key" class="er entityLabel">FK</text></g><g transform="translate(281.4583263397217,1160 )" id="entity-Score-01fee135-3a18-5b98-9402-f2b9a880b901"><rect height="137" width="136.71666812896729" y="0" x="0" class="er entityBox"></rect><text transform="translate(68.35833406448364,12.25)" style="dominant-baseline: middle; text-anchor: middle; font-size: 12px;" y="0" x="0" id="text-entity-Score-01fee135-3a18-5b98-9402-f2b9a880b901" class="er entityLabel">Score</text><rect height="22.5" width="36.75" y="24.5" x="0" class="er attributeBoxOdd"></rect><text transform="translate(5,35.75)" style="dominant-baseline: middle; font-size: 10.2px;" y="0" x="0" id="text-entity-Score-01fee135-3a18-5b98-9402-f2b9a880b901-attr-1-type" class="er entityLabel">string</text><rect height="22.5" width="77.4000015258789" y="24.5" x="36.75" class="er attributeBoxOdd"></rect><text transform="translate(41.75,35.75)" style="dominant-baseline: middle; font-size: 10.2px;" y="0" x="0" id="text-entity-Score-01fee135-3a18-5b98-9402-f2b9a880b901-attr-1-name" class="er entityLabel">id</text><rect height="22.5" width="22.56666660308838" y="24.5" x="114.1500015258789" class="er attributeBoxOdd"></rect><text transform="translate(119.1500015258789,35.75)" style="dominant-baseline: middle; font-size: 10.2px;" y="0" x="0" id="text-entity-Score-01fee135-3a18-5b98-9402-f2b9a880b901-attr-1-key" class="er entityLabel">PK</text><rect height="22.5" width="36.75" y="47" x="0" class="er attributeBoxEven"></rect><text transform="translate(5,58.25)" style="dominant-baseline: middle; font-size: 10.2px;" y="0" x="0" id="text-entity-Score-01fee135-3a18-5b98-9402-f2b9a880b901-attr-2-type" class="er entityLabel">int</text><rect height="22.5" width="77.4000015258789" y="47" x="36.75" class="er attributeBoxEven"></rect><text transform="translate(41.75,58.25)" style="dominant-baseline: middle; font-size: 10.2px;" y="0" x="0" id="text-entity-Score-01fee135-3a18-5b98-9402-f2b9a880b901-attr-2-name" class="er entityLabel">order</text><rect height="22.5" width="22.56666660308838" y="47" x="114.1500015258789" class="er attributeBoxEven"></rect><text transform="translate(119.1500015258789,58.25)" style="dominant-baseline: middle; font-size: 10.2px;" y="0" x="0" id="text-entity-Score-01fee135-3a18-5b98-9402-f2b9a880b901-attr-2-key" class="er entityLabel"></text><rect height="22.5" width="36.75" y="69.5" x="0" class="er attributeBoxOdd"></rect><text transform="translate(5,80.75)" style="dominant-baseline: middle; font-size: 10.2px;" y="0" x="0" id="text-entity-Score-01fee135-3a18-5b98-9402-f2b9a880b901-attr-3-type" class="er entityLabel">string</text><rect height="22.5" width="77.4000015258789" y="69.5" x="36.75" class="er attributeBoxOdd"></rect><text transform="translate(41.75,80.75)" style="dominant-baseline: middle; font-size: 10.2px;" y="0" x="0" id="text-entity-Score-01fee135-3a18-5b98-9402-f2b9a880b901-attr-3-name" class="er entityLabel">teamOneScore</text><rect height="22.5" width="22.56666660308838" y="69.5" x="114.1500015258789" class="er attributeBoxOdd"></rect><text transform="translate(119.1500015258789,80.75)" style="dominant-baseline: middle; font-size: 10.2px;" y="0" x="0" id="text-entity-Score-01fee135-3a18-5b98-9402-f2b9a880b901-attr-3-key" class="er entityLabel">FK</text><rect height="22.5" width="36.75" y="92" x="0" class="er attributeBoxEven"></rect><text transform="translate(5,103.25)" style="dominant-baseline: middle; font-size: 10.2px;" y="0" x="0" id="text-entity-Score-01fee135-3a18-5b98-9402-f2b9a880b901-attr-4-type" class="er entityLabel">string</text><rect height="22.5" width="77.4000015258789" y="92" x="36.75" class="er attributeBoxEven"></rect><text transform="translate(41.75,103.25)" style="dominant-baseline: middle; font-size: 10.2px;" y="0" x="0" id="text-entity-Score-01fee135-3a18-5b98-9402-f2b9a880b901-attr-4-name" class="er entityLabel">teamTwoScore</text><rect height="22.5" width="22.56666660308838" y="92" x="114.1500015258789" class="er attributeBoxEven"></rect><text transform="translate(119.1500015258789,103.25)" style="dominant-baseline: middle; font-size: 10.2px;" y="0" x="0" id="text-entity-Score-01fee135-3a18-5b98-9402-f2b9a880b901-attr-4-key" class="er entityLabel">FK</text><rect height="22.5" width="36.75" y="114.5" x="0" class="er attributeBoxOdd"></rect><text transform="translate(5,125.75)" style="dominant-baseline: middle; font-size: 10.2px;" y="0" x="0" id="text-entity-Score-01fee135-3a18-5b98-9402-f2b9a880b901-attr-5-type" class="er entityLabel">string</text><rect height="22.5" width="77.4000015258789" y="114.5" x="36.75" class="er attributeBoxOdd"></rect><text transform="translate(41.75,125.75)" style="dominant-baseline: middle; font-size: 10.2px;" y="0" x="0" id="text-entity-Score-01fee135-3a18-5b98-9402-f2b9a880b901-attr-5-name" class="er entityLabel">gameId</text><rect height="22.5" width="22.56666660308838" y="114.5" x="114.1500015258789" class="er attributeBoxOdd"></rect><text transform="translate(119.1500015258789,125.75)" style="dominant-baseline: middle; font-size: 10.2px;" y="0" x="0" id="text-entity-Score-01fee135-3a18-5b98-9402-f2b9a880b901-attr-5-key" class="er entityLabel">FK</text></g><g transform="translate(433.5458278656006,1397 )" id="entity-Point-db0f8fc7-872b-5a89-b1f3-7a80f13f6b6a"><rect height="114.5" width="103.01666736602783" y="0" x="0" class="er entityBox"></rect><text transform="translate(51.508333683013916,12.25)" style="dominant-baseline: middle; text-anchor: middle; font-size: 12px;" y="0" x="0" id="text-entity-Point-db0f8fc7-872b-5a89-b1f3-7a80f13f6b6a" class="er entityLabel">Point</text><rect height="22.5" width="36.75" y="24.5" x="0" class="er attributeBoxOdd"></rect><text transform="translate(5,35.75)" style="dominant-baseline: middle; font-size: 10.2px;" y="0" x="0" id="text-entity-Point-db0f8fc7-872b-5a89-b1f3-7a80f13f6b6a-attr-1-type" class="er entityLabel">string</text><rect height="22.5" width="43.70000076293945" y="24.5" x="36.75" class="er attributeBoxOdd"></rect><text transform="translate(41.75,35.75)" style="dominant-baseline: middle; font-size: 10.2px;" y="0" x="0" id="text-entity-Point-db0f8fc7-872b-5a89-b1f3-7a80f13f6b6a-attr-1-name" class="er entityLabel">id</text><rect height="22.5" width="22.56666660308838" y="24.5" x="80.45000076293945" class="er attributeBoxOdd"></rect><text transform="translate(85.45000076293945,35.75)" style="dominant-baseline: middle; font-size: 10.2px;" y="0" x="0" id="text-entity-Point-db0f8fc7-872b-5a89-b1f3-7a80f13f6b6a-attr-1-key" class="er entityLabel">PK</text><rect height="22.5" width="36.75" y="47" x="0" class="er attributeBoxEven"></rect><text transform="translate(5,58.25)" style="dominant-baseline: middle; font-size: 10.2px;" y="0" x="0" id="text-entity-Point-db0f8fc7-872b-5a89-b1f3-7a80f13f6b6a-attr-2-type" class="er entityLabel">int</text><rect height="22.5" width="43.70000076293945" y="47" x="36.75" class="er attributeBoxEven"></rect><text transform="translate(41.75,58.25)" style="dominant-baseline: middle; font-size: 10.2px;" y="0" x="0" id="text-entity-Point-db0f8fc7-872b-5a89-b1f3-7a80f13f6b6a-attr-2-name" class="er entityLabel">value</text><rect height="22.5" width="22.56666660308838" y="47" x="80.45000076293945" class="er attributeBoxEven"></rect><text transform="translate(85.45000076293945,58.25)" style="dominant-baseline: middle; font-size: 10.2px;" y="0" x="0" id="text-entity-Point-db0f8fc7-872b-5a89-b1f3-7a80f13f6b6a-attr-2-key" class="er entityLabel"></text><rect height="22.5" width="36.75" y="69.5" x="0" class="er attributeBoxOdd"></rect><text transform="translate(5,80.75)" style="dominant-baseline: middle; font-size: 10.2px;" y="0" x="0" id="text-entity-Point-db0f8fc7-872b-5a89-b1f3-7a80f13f6b6a-attr-3-type" class="er entityLabel">string</text><rect height="22.5" width="43.70000076293945" y="69.5" x="36.75" class="er attributeBoxOdd"></rect><text transform="translate(41.75,80.75)" style="dominant-baseline: middle; font-size: 10.2px;" y="0" x="0" id="text-entity-Point-db0f8fc7-872b-5a89-b1f3-7a80f13f6b6a-attr-3-name" class="er entityLabel">teamId</text><rect height="22.5" width="22.56666660308838" y="69.5" x="80.45000076293945" class="er attributeBoxOdd"></rect><text transform="translate(85.45000076293945,80.75)" style="dominant-baseline: middle; font-size: 10.2px;" y="0" x="0" id="text-entity-Point-db0f8fc7-872b-5a89-b1f3-7a80f13f6b6a-attr-3-key" class="er entityLabel">FK</text><rect height="22.5" width="36.75" y="92" x="0" class="er attributeBoxEven"></rect><text transform="translate(5,103.25)" style="dominant-baseline: middle; font-size: 10.2px;" y="0" x="0" id="text-entity-Point-db0f8fc7-872b-5a89-b1f3-7a80f13f6b6a-attr-4-type" class="er entityLabel">string</text><rect height="22.5" width="43.70000076293945" y="92" x="36.75" class="er attributeBoxEven"></rect><text transform="translate(41.75,103.25)" style="dominant-baseline: middle; font-size: 10.2px;" y="0" x="0" id="text-entity-Point-db0f8fc7-872b-5a89-b1f3-7a80f13f6b6a-attr-4-name" class="er entityLabel">scoreId</text><rect height="22.5" width="22.56666660308838" y="92" x="80.45000076293945" class="er attributeBoxEven"></rect><text transform="translate(85.45000076293945,103.25)" style="dominant-baseline: middle; font-size: 10.2px;" y="0" x="0" id="text-entity-Point-db0f8fc7-872b-5a89-b1f3-7a80f13f6b6a-attr-4-key" class="er entityLabel">FK</text></g><g transform="translate(322.08333015441895,20 )" id="entity-User-818c511a-4a32-5484-ba70-875d765a9175"><rect height="114.5" width="114.51666736602783" y="0" x="0" class="er entityBox"></rect><text transform="translate(57.258333683013916,12.25)" style="dominant-baseline: middle; text-anchor: middle; font-size: 12px;" y="0" x="0" id="text-entity-User-818c511a-4a32-5484-ba70-875d765a9175" class="er entityLabel">User</text><rect height="22.5" width="36.75" y="24.5" x="0" class="er attributeBoxOdd"></rect><text transform="translate(5,35.75)" style="dominant-baseline: middle; font-size: 10.2px;" y="0" x="0" id="text-entity-User-818c511a-4a32-5484-ba70-875d765a9175-attr-1-type" class="er entityLabel">string</text><rect height="22.5" width="55.20000076293945" y="24.5" x="36.75" class="er attributeBoxOdd"></rect><text transform="translate(41.75,35.75)" style="dominant-baseline: middle; font-size: 10.2px;" y="0" x="0" id="text-entity-User-818c511a-4a32-5484-ba70-875d765a9175-attr-1-name" class="er entityLabel">id</text><rect height="22.5" width="22.56666660308838" y="24.5" x="91.95000076293945" class="er attributeBoxOdd"></rect><text transform="translate(96.95000076293945,35.75)" style="dominant-baseline: middle; font-size: 10.2px;" y="0" x="0" id="text-entity-User-818c511a-4a32-5484-ba70-875d765a9175-attr-1-key" class="er entityLabel">PK</text><rect height="22.5" width="36.75" y="47" x="0" class="er attributeBoxEven"></rect><text transform="translate(5,58.25)" style="dominant-baseline: middle; font-size: 10.2px;" y="0" x="0" id="text-entity-User-818c511a-4a32-5484-ba70-875d765a9175-attr-2-type" class="er entityLabel">string</text><rect height="22.5" width="55.20000076293945" y="47" x="36.75" class="er attributeBoxEven"></rect><text transform="translate(41.75,58.25)" style="dominant-baseline: middle; font-size: 10.2px;" y="0" x="0" id="text-entity-User-818c511a-4a32-5484-ba70-875d765a9175-attr-2-name" class="er entityLabel">username</text><rect height="22.5" width="22.56666660308838" y="47" x="91.95000076293945" class="er attributeBoxEven"></rect><text transform="translate(96.95000076293945,58.25)" style="dominant-baseline: middle; font-size: 10.2px;" y="0" x="0" id="text-entity-User-818c511a-4a32-5484-ba70-875d765a9175-attr-2-key" class="er entityLabel"></text><rect height="22.5" width="36.75" y="69.5" x="0" class="er attributeBoxOdd"></rect><text transform="translate(5,80.75)" style="dominant-baseline: middle; font-size: 10.2px;" y="0" x="0" id="text-entity-User-818c511a-4a32-5484-ba70-875d765a9175-attr-3-type" class="er entityLabel">string</text><rect height="22.5" width="55.20000076293945" y="69.5" x="36.75" class="er attributeBoxOdd"></rect><text transform="translate(41.75,80.75)" style="dominant-baseline: middle; font-size: 10.2px;" y="0" x="0" id="text-entity-User-818c511a-4a32-5484-ba70-875d765a9175-attr-3-name" class="er entityLabel">email</text><rect height="22.5" width="22.56666660308838" y="69.5" x="91.95000076293945" class="er attributeBoxOdd"></rect><text transform="translate(96.95000076293945,80.75)" style="dominant-baseline: middle; font-size: 10.2px;" y="0" x="0" id="text-entity-User-818c511a-4a32-5484-ba70-875d765a9175-attr-3-key" class="er entityLabel"></text><rect height="22.5" width="36.75" y="92" x="0" class="er attributeBoxEven"></rect><text transform="translate(5,103.25)" style="dominant-baseline: middle; font-size: 10.2px;" y="0" x="0" id="text-entity-User-818c511a-4a32-5484-ba70-875d765a9175-attr-4-type" class="er entityLabel">string</text><rect height="22.5" width="55.20000076293945" y="92" x="36.75" class="er attributeBoxEven"></rect><text transform="translate(41.75,103.25)" style="dominant-baseline: middle; font-size: 10.2px;" y="0" x="0" id="text-entity-User-818c511a-4a32-5484-ba70-875d765a9175-attr-4-name" class="er entityLabel">password</text><rect height="22.5" width="22.56666660308838" y="92" x="91.95000076293945" class="er attributeBoxEven"></rect><text transform="translate(96.95000076293945,103.25)" style="dominant-baseline: middle; font-size: 10.2px;" y="0" x="0" id="text-entity-User-818c511a-4a32-5484-ba70-875d765a9175-attr-4-key" class="er entityLabel"></text></g><rect height="14.5" width="18.700000762939453" y="160.56661987304688" x="227.51093101501465" class="er relationshipLabelBox"></rect><text style="text-anchor: middle; dominant-baseline: middle; font-size: 12px;" y="167.81661987304688" x="236.86093139648438" id="rel9886" class="er relationshipLabel">has</text><rect height="14.5" width="28.28333282470703" y="370.87811279296875" x="123.52038192749023" class="er relationshipLabelBox"></rect><text style="text-anchor: middle; dominant-baseline: middle; font-size: 12px;" y="378.12811279296875" x="137.66204833984375" id="rel9887" class="er relationshipLabel">plays</text><rect height="14.5" width="18.700000762939453" y="678.9821166992188" x="161.7541103363037" class="er relationshipLabelBox"></rect><text style="text-anchor: middle; dominant-baseline: middle; font-size: 12px;" y="686.2321166992188" x="171.10411071777344" id="rel9888" class="er relationshipLabel">has</text><rect height="14.5" width="45.983333587646484" y="859.36083984375" x="24.6987361907959" class="er relationshipLabelBox"></rect><text style="text-anchor: middle; dominant-baseline: middle; font-size: 12px;" y="866.61083984375" x="47.69040298461914" id="rel9889" class="er relationshipLabel">tiebreak</text><rect height="14.5" width="18.700000762939453" y="868.6226806640625" x="272.52240562438965" class="er relationshipLabelBox"></rect><text style="text-anchor: middle; dominant-baseline: middle; font-size: 12px;" y="875.8726806640625" x="281.8724060058594" id="rel9890" class="er relationshipLabel">has</text><rect height="14.5" width="18.700000762939453" y="1102.75" x="340.46698570251465" class="er relationshipLabelBox"></rect><text style="text-anchor: middle; dominant-baseline: middle; font-size: 12px;" y="1110" x="349.8169860839844" id="rel9891" class="er relationshipLabel">has</text><rect height="14.5" width="18.700000762939453" y="1357.30810546875" x="367.04620933532715" class="er relationshipLabelBox"></rect><text style="text-anchor: middle; dominant-baseline: middle; font-size: 12px;" y="1364.55810546875" x="376.3962097167969" id="rel9892" class="er relationshipLabel">has</text><rect height="14.5" width="18.700000762939453" y="818.7125244140625" x="572.074987411499" class="er relationshipLabelBox"></rect><text style="text-anchor: middle; dominant-baseline: middle; font-size: 12px;" y="825.9625244140625" x="581.4249877929688" id="rel9893" class="er relationshipLabel">has</text><rect height="14.5" width="18.700000762939453" y="220.84005737304688" x="111.04399681091309" class="er relationshipLabelBox"></rect><text style="text-anchor: middle; dominant-baseline: middle; font-size: 12px;" y="228.09005737304688" x="120.39399719238281" id="rel9894" class="er relationshipLabel">has</text><rect height="14.5" width="18.700000762939453" y="193.08029174804688" x="456.069860458374" class="er relationshipLabelBox"></rect><text style="text-anchor: middle; dominant-baseline: middle; font-size: 12px;" y="200.33029174804688" x="465.41986083984375" id="rel9895" class="er relationshipLabel">has</text><rect height="14.5" width="24.75" y="406.1213073730469" x="208.95069885253906" class="er relationshipLabelBox"></rect><text style="text-anchor: middle; dominant-baseline: middle; font-size: 12px;" y="413.3713073730469" x="221.32569885253906" id="rel9896" class="er relationshipLabel">wins</text><rect height="14.5" width="24.75" y="544.4524536132812" x="298.57501220703125" class="er relationshipLabelBox"></rect><text style="text-anchor: middle; dominant-baseline: middle; font-size: 12px;" y="551.7024536132812" x="310.95001220703125" id="rel9897" class="er relationshipLabel">wins</text><rect height="14.5" width="24.75" y="639.5250244140625" x="433.81201171875" class="er relationshipLabelBox"></rect><text style="text-anchor: middle; dominant-baseline: middle; font-size: 12px;" y="646.7750244140625" x="446.18701171875" id="rel9898" class="er relationshipLabel">wins</text></svg>