<svg aria-roledescription="er" role="graphics-document document" viewBox="0 0 499.3500061035156 990" style="max-width: 100%;" xmlns="http://www.w3.org/2000/svg" width="100%" id="graph-div" height="100%" xmlns:xlink="http://www.w3.org/1999/xlink"><style>@import url("https://cdnjs.cloudflare.com/ajax/libs/font-awesome/6.4.2/css/all.min.css");'</style><style>#graph-div{font-family:"trebuchet ms",verdana,arial,sans-serif;font-size:16px;fill:#ccc;}#graph-div .error-icon{fill:#a44141;}#graph-div .error-text{fill:#ddd;stroke:#ddd;}#graph-div .edge-thickness-normal{stroke-width:2px;}#graph-div .edge-thickness-thick{stroke-width:3.5px;}#graph-div .edge-pattern-solid{stroke-dasharray:0;}#graph-div .edge-pattern-dashed{stroke-dasharray:3;}#graph-div .edge-pattern-dotted{stroke-dasharray:2;}#graph-div .marker{fill:lightgrey;stroke:lightgrey;}#graph-div .marker.cross{stroke:lightgrey;}#graph-div svg{font-family:"trebuchet ms",verdana,arial,sans-serif;font-size:16px;}#graph-div .entityBox{fill:#1f2020;stroke:#81B1DB;}#graph-div .attributeBoxOdd{fill:hsl(0, 0%, 32%);stroke:#81B1DB;}#graph-div .attributeBoxEven{fill:hsl(0, 0%, 22%);stroke:#81B1DB;}#graph-div .relationshipLabelBox{fill:hsl(20, 1.5873015873%, 12.3529411765%);opacity:0.7;background-color:hsl(20, 1.5873015873%, 12.3529411765%);}#graph-div .relationshipLabelBox rect{opacity:0.5;}#graph-div .relationshipLine{stroke:lightgrey;}#graph-div .entityTitleText{text-anchor:middle;font-size:18px;fill:#ccc;}#graph-div #MD_PARENT_START{fill:#f5f5f5!important;stroke:lightgrey!important;stroke-width:1;}#graph-div #MD_PARENT_END{fill:#f5f5f5!important;stroke:lightgrey!important;stroke-width:1;}#graph-div :root{--mermaid-font-family:"trebuchet ms",verdana,arial,sans-serif;}</style><g></g><defs><marker orient="auto" markerHeight="240" markerWidth="190" refY="7" refX="0" id="MD_PARENT_START"><path d="M 18,7 L9,13 L1,7 L9,1 Z"></path></marker></defs><defs><marker orient="auto" markerHeight="28" markerWidth="20" refY="7" refX="19" id="MD_PARENT_END"><path d="M 18,7 L9,13 L1,7 L9,1 Z"></path></marker></defs><defs><marker orient="auto" markerHeight="18" markerWidth="18" refY="9" refX="0" id="ONLY_ONE_START"><path d="M9,0 L9,18 M15,0 L15,18" fill="none" stroke="gray"></path></marker></defs><defs><marker orient="auto" markerHeight="18" markerWidth="18" refY="9" refX="18" id="ONLY_ONE_END"><path d="M3,0 L3,18 M9,0 L9,18" fill="none" stroke="gray"></path></marker></defs><defs><marker orient="auto" markerHeight="18" markerWidth="30" refY="9" refX="0" id="ZERO_OR_ONE_START"><circle r="6" cy="9" cx="21" fill="white" stroke="gray"></circle><path d="M9,0 L9,18" fill="none" stroke="gray"></path></marker></defs><defs><marker orient="auto" markerHeight="18" markerWidth="30" refY="9" refX="30" id="ZERO_OR_ONE_END"><circle r="6" cy="9" cx="9" fill="white" stroke="gray"></circle><path d="M21,0 L21,18" fill="none" stroke="gray"></path></marker></defs><defs><marker orient="auto" markerHeight="36" markerWidth="45" refY="18" refX="18" id="ONE_OR_MORE_START"><path d="M0,18 Q 18,0 36,18 Q 18,36 0,18 M42,9 L42,27" fill="none" stroke="gray"></path></marker></defs><defs><marker orient="auto" markerHeight="36" markerWidth="45" refY="18" refX="27" id="ONE_OR_MORE_END"><path d="M3,9 L3,27 M9,18 Q27,0 45,18 Q27,36 9,18" fill="none" stroke="gray"></path></marker></defs><defs><marker orient="auto" markerHeight="36" markerWidth="57" refY="18" refX="18" id="ZERO_OR_MORE_START"><circle r="6" cy="18" cx="48" fill="white" stroke="gray"></circle><path d="M0,18 Q18,0 36,18 Q18,36 0,18" fill="none" stroke="gray"></path></marker></defs><defs><marker orient="auto" markerHeight="36" markerWidth="57" refY="18" refX="39" id="ZERO_OR_MORE_END"><circle r="6" cy="18" cx="9" fill="white" stroke="gray"></circle><path d="M21,18 Q39,0 57,18 Q39,36 21,18" fill="none" stroke="gray"></path></marker></defs><path marker-start="url(#ONLY_ONE_START)" marker-end="url(#ONE_OR_MORE_END)" stroke-dasharray="8,8" style="stroke: gray; fill: none;" d="M70,95L70,103.333C70,111.667,70,128.333,74.762,145C79.524,161.667,89.048,178.333,93.81,186.667L98.571,195" class="er relationshipLine"></path><path marker-start="url(#ONLY_ONE_START)" marker-end="url(#ZERO_OR_MORE_END)" stroke-dasharray="8,8" style="stroke: gray; fill: none;" d="M120,270L120,278.333C120,286.667,120,303.333,127.143,320C134.286,336.667,148.571,353.333,155.714,361.667L162.857,370" class="er relationshipLine"></path><path marker-start="url(#ONLY_ONE_START)" marker-end="url(#ONE_OR_MORE_END)" stroke-dasharray="8,8" style="stroke: gray; fill: none;" d="M195,445L195,453.333C195,461.667,195,478.333,195,495C195,511.667,195,528.333,195,536.667L195,545" class="er relationshipLine"></path><path marker-start="url(#ONLY_ONE_START)" marker-end="url(#ONE_OR_MORE_END)" stroke-dasharray="8,8" style="stroke: gray; fill: none;" d="M195,620L195,628.333C195,636.667,195,653.333,195,670C195,686.667,195,703.333,195,711.667L195,720" class="er relationshipLine"></path><path marker-start="url(#ONLY_ONE_START)" marker-end="url(#ZERO_OR_MORE_END)" stroke-dasharray="8,8" style="stroke: gray; fill: none;" d="M195,795L195,803.333C195,811.667,195,828.333,202.143,845C209.286,861.667,223.571,878.333,230.714,886.667L237.857,895" class="er relationshipLine"></path><path marker-start="url(#ONLY_ONE_START)" marker-end="url(#ZERO_OR_MORE_END)" stroke-dasharray="8,8" style="stroke: gray; fill: none;" d="M170,245L220,257.5C270,270,370,295,420,322.083C470,349.167,470,378.333,470,407.5C470,436.667,470,465.833,470,495C470,524.167,470,553.333,470,582.5C470,611.667,470,640.833,470,670C470,699.167,470,728.333,470,757.5C470,786.667,470,815.833,445,841.354C420,866.875,370,888.75,345,899.688L320,910.625" class="er relationshipLine"></path><path marker-start="url(#ONLY_ONE_START)" marker-end="url(#ZERO_OR_MORE_END)" stroke-dasharray="8,8" style="stroke: gray; fill: none;" d="M316.429,95L321.19,103.333C325.952,111.667,335.476,128.333,340.238,151.25C345,174.167,345,203.333,345,232.5C345,261.667,345,290.833,328.333,315.139C311.667,339.444,278.333,358.889,261.667,368.611L245,378.333" class="er relationshipLine"></path><path marker-start="url(#ONLY_ONE_START)" marker-end="url(#ZERO_OR_MORE_END)" stroke-dasharray="8,8" style="stroke: gray; fill: none;" d="M262.857,95L255.714,103.333C248.571,111.667,234.286,128.333,217.619,145C200.952,161.667,181.905,178.333,172.381,186.667L162.857,195" class="er relationshipLine"></path><g transform="translate(20,20 )" id="entity-Player-8a4d8822-5447-5bf3-9bb1-c82c7616821b"><rect height="75" width="100" y="0" x="0" class="er entityBox"></rect><text transform="translate(50,37.5)" style="dominant-baseline: middle; text-anchor: middle; font-size: 12px;" y="0" x="0" id="text-entity-Player-8a4d8822-5447-5bf3-9bb1-c82c7616821b" class="er entityLabel">Player</text></g><g transform="translate(70,195 )" id="entity-Team-bf3f5416-76e3-5dc0-89d0-070d82786f59"><rect height="75" width="100" y="0" x="0" class="er entityBox"></rect><text transform="translate(50,37.5)" style="dominant-baseline: middle; text-anchor: middle; font-size: 12px;" y="0" x="0" id="text-entity-Team-bf3f5416-76e3-5dc0-89d0-070d82786f59" class="er entityLabel">Team</text></g><g transform="translate(145,370 )" id="entity-Match-bb868d25-f1db-5893-b0b3-486d1ccf5a14"><rect height="75" width="100" y="0" x="0" class="er entityBox"></rect><text transform="translate(50,37.5)" style="dominant-baseline: middle; text-anchor: middle; font-size: 12px;" y="0" x="0" id="text-entity-Match-bb868d25-f1db-5893-b0b3-486d1ccf5a14" class="er entityLabel">Match</text></g><g transform="translate(145,545 )" id="entity-Set-52ee8eeb-60bf-544e-b31f-1f23d15fa54d"><rect height="75" width="100" y="0" x="0" class="er entityBox"></rect><text transform="translate(50,37.5)" style="dominant-baseline: middle; text-anchor: middle; font-size: 12px;" y="0" x="0" id="text-entity-Set-52ee8eeb-60bf-544e-b31f-1f23d15fa54d" class="er entityLabel">Set</text></g><g transform="translate(145,720 )" id="entity-Game-87e52c75-2f34-5ffb-97f0-d4ba8ef70a3a"><rect height="75" width="100" y="0" x="0" class="er entityBox"></rect><text transform="translate(50,37.5)" style="dominant-baseline: middle; text-anchor: middle; font-size: 12px;" y="0" x="0" id="text-entity-Game-87e52c75-2f34-5ffb-97f0-d4ba8ef70a3a" class="er entityLabel">Game</text></g><g transform="translate(220,895 )" id="entity-Point-db0f8fc7-872b-5a89-b1f3-7a80f13f6b6a"><rect height="75" width="100" y="0" x="0" class="er entityBox"></rect><text transform="translate(50,37.5)" style="dominant-baseline: middle; text-anchor: middle; font-size: 12px;" y="0" x="0" id="text-entity-Point-db0f8fc7-872b-5a89-b1f3-7a80f13f6b6a" class="er entityLabel">Point</text></g><g transform="translate(245,20 )" id="entity-User-818c511a-4a32-5484-ba70-875d765a9175"><rect height="75" width="100" y="0" x="0" class="er entityBox"></rect><text transform="translate(50,37.5)" style="dominant-baseline: middle; text-anchor: middle; font-size: 12px;" y="0" x="0" id="text-entity-User-818c511a-4a32-5484-ba70-875d765a9175" class="er entityLabel">User</text></g><rect height="14.5" width="18.700000762939453" y="140.1971435546875" x="66.14462852478027" class="er relationshipLabelBox"></rect><text style="text-anchor: middle; dominant-baseline: middle; font-size: 12px;" y="147.4471435546875" x="75.49462890625" id="rel39" class="er relationshipLabel">has</text><rect height="14.5" width="28.28333282470703" y="317.6242980957031" x="115.28469467163086" class="er relationshipLabelBox"></rect><text style="text-anchor: middle; dominant-baseline: middle; font-size: 12px;" y="324.8742980957031" x="129.42636108398438" id="rel40" class="er relationshipLabel">plays</text><rect height="14.5" width="18.700000762939453" y="487.75" x="185.64999961853027" class="er relationshipLabelBox"></rect><text style="text-anchor: middle; dominant-baseline: middle; font-size: 12px;" y="495" x="195" id="rel41" class="er relationshipLabel">has</text><rect height="14.5" width="18.700000762939453" y="662.75" x="185.64999961853027" class="er relationshipLabelBox"></rect><text style="text-anchor: middle; dominant-baseline: middle; font-size: 12px;" y="670" x="195" id="rel42" class="er relationshipLabel">has</text><rect height="14.5" width="18.700000762939453" y="842.6243286132812" x="195.0763759613037" class="er relationshipLabelBox"></rect><text style="text-anchor: middle; dominant-baseline: middle; font-size: 12px;" y="849.8743286132812" x="204.42637634277344" id="rel43" class="er relationshipLabel">has</text><rect height="14.5" width="18.700000762939453" y="508.1162109375" x="460.6499996185303" class="er relationshipLabelBox"></rect><text style="text-anchor: middle; dominant-baseline: middle; font-size: 12px;" y="515.3662109375" x="470" id="rel44" class="er relationshipLabel">has</text><rect height="14.5" width="18.700000762939453" y="249.35073852539062" x="335.2972469329834" class="er relationshipLabelBox"></rect><text style="text-anchor: middle; dominant-baseline: middle; font-size: 12px;" y="256.6007385253906" x="344.6472473144531" id="rel45" class="er relationshipLabel">has</text><rect height="14.5" width="18.700000762939453" y="140.11903381347656" x="205.8842067718506" class="er relationshipLabelBox"></rect><text style="text-anchor: middle; dominant-baseline: middle; font-size: 12px;" y="147.36903381347656" x="215.2342071533203" id="rel46" class="er relationshipLabel">has</text></svg>