<svg aria-roledescription="er" role="graphics-document document" viewBox="-47.99166679382324 0 372.3416748046875 1165" style="max-width: 100%;" xmlns="http://www.w3.org/2000/svg" width="1000px" id="graph-div" height="858px" xmlns:xlink="http://www.w3.org/1999/xlink"><style>@import url("https://cdnjs.cloudflare.com/ajax/libs/font-awesome/6.4.2/css/all.min.css");'</style><style>#graph-div{font-family:"trebuchet ms",verdana,arial,sans-serif;font-size:16px;fill:#ccc;}#graph-div .error-icon{fill:#a44141;}#graph-div .error-text{fill:#ddd;stroke:#ddd;}#graph-div .edge-thickness-normal{stroke-width:2px;}#graph-div .edge-thickness-thick{stroke-width:3.5px;}#graph-div .edge-pattern-solid{stroke-dasharray:0;}#graph-div .edge-pattern-dashed{stroke-dasharray:3;}#graph-div .edge-pattern-dotted{stroke-dasharray:2;}#graph-div .marker{fill:lightgrey;stroke:lightgrey;}#graph-div .marker.cross{stroke:lightgrey;}#graph-div svg{font-family:"trebuchet ms",verdana,arial,sans-serif;font-size:16px;}#graph-div .entityBox{fill:#1f2020;stroke:#81B1DB;}#graph-div .attributeBoxOdd{fill:hsl(0, 0%, 32%);stroke:#81B1DB;}#graph-div .attributeBoxEven{fill:hsl(0, 0%, 22%);stroke:#81B1DB;}#graph-div .relationshipLabelBox{fill:hsl(20, 1.5873015873%, 12.3529411765%);opacity:0.7;background-color:hsl(20, 1.5873015873%, 12.3529411765%);}#graph-div .relationshipLabelBox rect{opacity:0.5;}#graph-div .relationshipLine{stroke:lightgrey;}#graph-div .entityTitleText{text-anchor:middle;font-size:18px;fill:#ccc;}#graph-div #MD_PARENT_START{fill:#f5f5f5!important;stroke:lightgrey!important;stroke-width:1;}#graph-div #MD_PARENT_END{fill:#f5f5f5!important;stroke:lightgrey!important;stroke-width:1;}#graph-div :root{--mermaid-font-family:"trebuchet ms",verdana,arial,sans-serif;}</style><g></g><defs><marker orient="auto" markerHeight="240" markerWidth="190" refY="7" refX="0" id="MD_PARENT_START"><path d="M 18,7 L9,13 L1,7 L9,1 Z"></path></marker></defs><defs><marker orient="auto" markerHeight="28" markerWidth="20" refY="7" refX="19" id="MD_PARENT_END"><path d="M 18,7 L9,13 L1,7 L9,1 Z"></path></marker></defs><defs><marker orient="auto" markerHeight="18" markerWidth="18" refY="9" refX="0" id="ONLY_ONE_START"><path d="M9,0 L9,18 M15,0 L15,18" fill="none" stroke="gray"></path></marker></defs><defs><marker orient="auto" markerHeight="18" markerWidth="18" refY="9" refX="18" id="ONLY_ONE_END"><path d="M3,0 L3,18 M9,0 L9,18" fill="none" stroke="gray"></path></marker></defs><defs><marker orient="auto" markerHeight="18" markerWidth="30" refY="9" refX="0" id="ZERO_OR_ONE_START"><circle r="6" cy="9" cx="21" fill="white" stroke="gray"></circle><path d="M9,0 L9,18" fill="none" stroke="gray"></path></marker></defs><defs><marker orient="auto" markerHeight="18" markerWidth="30" refY="9" refX="30" id="ZERO_OR_ONE_END"><circle r="6" cy="9" cx="9" fill="white" stroke="gray"></circle><path d="M21,0 L21,18" fill="none" stroke="gray"></path></marker></defs><defs><marker orient="auto" markerHeight="36" markerWidth="45" refY="18" refX="18" id="ONE_OR_MORE_START"><path d="M0,18 Q 18,0 36,18 Q 18,36 0,18 M42,9 L42,27" fill="none" stroke="gray"></path></marker></defs><defs><marker orient="auto" markerHeight="36" markerWidth="45" refY="18" refX="27" id="ONE_OR_MORE_END"><path d="M3,9 L3,27 M9,18 Q27,0 45,18 Q27,36 9,18" fill="none" stroke="gray"></path></marker></defs><defs><marker orient="auto" markerHeight="36" markerWidth="57" refY="18" refX="18" id="ZERO_OR_MORE_START"><circle r="6" cy="18" cx="48" fill="white" stroke="gray"></circle><path d="M0,18 Q18,0 36,18 Q18,36 0,18" fill="none" stroke="gray"></path></marker></defs><defs><marker orient="auto" markerHeight="36" markerWidth="57" refY="18" refX="39" id="ZERO_OR_MORE_END"><circle r="6" cy="18" cx="9" fill="white" stroke="gray"></circle><path d="M21,18 Q39,0 57,18 Q39,36 21,18" fill="none" stroke="gray"></path></marker></defs><path marker-start="url(#ONLY_ONE_START)" marker-end="url(#ONE_OR_MORE_END)" stroke-dasharray="8,8" style="stroke: gray; fill: none;" d="M145,95L145,103.333C145,111.667,145,128.333,145,145C145,161.667,145,178.333,145,186.667L145,195" class="er relationshipLine"></path><path marker-start="url(#ONLY_ONE_START)" marker-end="url(#ZERO_OR_MORE_END)" stroke-dasharray="8,8" style="stroke: gray; fill: none;" d="M112.857,270L105.714,278.333C98.571,286.667,84.286,303.333,77.143,320C70,336.667,70,353.333,70,361.667L70,370" class="er relationshipLine"></path><path marker-start="url(#ONLY_ONE_START)" marker-end="url(#ONE_OR_MORE_END)" stroke-dasharray="8,8" style="stroke: gray; fill: none;" d="M102.143,445L109.286,453.333C116.429,461.667,130.714,478.333,137.857,495C145,511.667,145,528.333,145,536.667L145,545" class="er relationshipLine"></path><path marker-start="url(#ONLY_ONE_START)" marker-end="url(#ONLY_ONE_END)" stroke-dasharray="8,8" style="stroke: gray; fill: none;" d="M37.857,445L30.714,453.333C23.571,461.667,9.286,478.333,2.143,501.25C-5,524.167,-5,553.333,-5,582.5C-5,611.667,-5,640.833,2.143,663.75C9.286,686.667,23.571,703.333,30.714,711.667L37.857,720" class="er relationshipLine"></path><path marker-start="url(#ONLY_ONE_START)" marker-end="url(#ONE_OR_MORE_END)" stroke-dasharray="8,8" style="stroke: gray; fill: none;" d="M145,620L145,628.333C145,636.667,145,653.333,137.857,670C130.714,686.667,116.429,703.333,109.286,711.667L102.143,720" class="er relationshipLine"></path><path marker-start="url(#ONLY_ONE_START)" marker-end="url(#ZERO_OR_MORE_END)" stroke-dasharray="8,8" style="stroke: gray; fill: none;" d="M70,795L70,803.333C70,811.667,70,828.333,70,845C70,861.667,70,878.333,70,886.667L70,895" class="er relationshipLine"></path><path marker-start="url(#ONLY_ONE_START)" marker-end="url(#ONLY_ONE_END)" stroke-dasharray="8,8" style="stroke: gray; fill: none;" d="M70,970L70,978.333C70,986.667,70,1003.333,77.143,1020C84.286,1036.667,98.571,1053.333,105.714,1061.667L112.857,1070" class="er relationshipLine"></path><path marker-start="url(#ONLY_ONE_START)" marker-end="url(#ZERO_OR_MORE_END)" stroke-dasharray="8,8" style="stroke: gray; fill: none;" d="M195,261.667L211.667,271.389C228.333,281.111,261.667,300.556,278.333,324.861C295,349.167,295,378.333,295,407.5C295,436.667,295,465.833,295,495C295,524.167,295,553.333,295,582.5C295,611.667,295,640.833,295,670C295,699.167,295,728.333,295,757.5C295,786.667,295,815.833,295,845C295,874.167,295,903.333,295,932.5C295,961.667,295,990.833,278.333,1015.139C261.667,1039.444,228.333,1058.889,211.667,1068.611L195,1078.333" class="er relationshipLine"></path><g transform="translate(95,20 )" id="entity-Player-8a4d8822-5447-5bf3-9bb1-c82c7616821b"><rect height="75" width="100" y="0" x="0" class="er entityBox"></rect><text transform="translate(50,37.5)" style="dominant-baseline: middle; text-anchor: middle; font-size: 12px;" y="0" x="0" id="text-entity-Player-8a4d8822-5447-5bf3-9bb1-c82c7616821b" class="er entityLabel">Player</text></g><g transform="translate(95,195 )" id="entity-Team-bf3f5416-76e3-5dc0-89d0-070d82786f59"><rect height="75" width="100" y="0" x="0" class="er entityBox"></rect><text transform="translate(50,37.5)" style="dominant-baseline: middle; text-anchor: middle; font-size: 12px;" y="0" x="0" id="text-entity-Team-bf3f5416-76e3-5dc0-89d0-070d82786f59" class="er entityLabel">Team</text></g><g transform="translate(20,370 )" id="entity-Match-bb868d25-f1db-5893-b0b3-486d1ccf5a14"><rect height="75" width="100" y="0" x="0" class="er entityBox"></rect><text transform="translate(50,37.5)" style="dominant-baseline: middle; text-anchor: middle; font-size: 12px;" y="0" x="0" id="text-entity-Match-bb868d25-f1db-5893-b0b3-486d1ccf5a14" class="er entityLabel">Match</text></g><g transform="translate(95,545 )" id="entity-Set-52ee8eeb-60bf-544e-b31f-1f23d15fa54d"><rect height="75" width="100" y="0" x="0" class="er entityBox"></rect><text transform="translate(50,37.5)" style="dominant-baseline: middle; text-anchor: middle; font-size: 12px;" y="0" x="0" id="text-entity-Set-52ee8eeb-60bf-544e-b31f-1f23d15fa54d" class="er entityLabel">Set</text></g><g transform="translate(20,720 )" id="entity-Game-87e52c75-2f34-5ffb-97f0-d4ba8ef70a3a"><rect height="75" width="100" y="0" x="0" class="er entityBox"></rect><text transform="translate(50,37.5)" style="dominant-baseline: middle; text-anchor: middle; font-size: 12px;" y="0" x="0" id="text-entity-Game-87e52c75-2f34-5ffb-97f0-d4ba8ef70a3a" class="er entityLabel">Game</text></g><g transform="translate(20,895 )" id="entity-Point-db0f8fc7-872b-5a89-b1f3-7a80f13f6b6a"><rect height="75" width="100" y="0" x="0" class="er entityBox"></rect><text transform="translate(50,37.5)" style="dominant-baseline: middle; text-anchor: middle; font-size: 12px;" y="0" x="0" id="text-entity-Point-db0f8fc7-872b-5a89-b1f3-7a80f13f6b6a" class="er entityLabel">Point</text></g><g transform="translate(95,1070 )" id="entity-TeamPoint-a3ec20ae-0d93-5dd4-b72f-6aedfd7b67ef"><rect height="75" width="100" y="0" x="0" class="er entityBox"></rect><text transform="translate(50,37.5)" style="dominant-baseline: middle; text-anchor: middle; font-size: 12px;" y="0" x="0" id="text-entity-TeamPoint-a3ec20ae-0d93-5dd4-b72f-6aedfd7b67ef" class="er entityLabel">TeamPoint</text></g><rect height="14.5" width="18.700000762939453" y="137.75" x="135.64999961853027" class="er relationshipLabelBox"></rect><text style="text-anchor: middle; dominant-baseline: middle; font-size: 12px;" y="145" x="145" id="rel810" class="er relationshipLabel">has</text><rect height="14.5" width="28.28333282470703" y="307.8756408691406" x="65.2846565246582" class="er relationshipLabelBox"></rect><text style="text-anchor: middle; dominant-baseline: middle; font-size: 12px;" y="315.1256408691406" x="79.42632293701172" id="rel811" class="er relationshipLabel">plays</text><rect height="14.5" width="18.700000762939453" y="482.87567138671875" x="126.22366905212402" class="er relationshipLabelBox"></rect><text style="text-anchor: middle; dominant-baseline: middle; font-size: 12px;" y="490.12567138671875" x="135.57366943359375" id="rel812" class="er relationshipLabel">has</text><rect height="14.5" width="45.983333587646484" y="575.2500610351562" x="-27.991666793823242" class="er relationshipLabelBox"></rect><text style="text-anchor: middle; dominant-baseline: middle; font-size: 12px;" y="582.5000610351562" x="-5" id="rel813" class="er relationshipLabel">tiebreak</text><rect height="14.5" width="18.700000762939453" y="667.6243286132812" x="126.22362327575684" class="er relationshipLabelBox"></rect><text style="text-anchor: middle; dominant-baseline: middle; font-size: 12px;" y="674.8743286132812" x="135.57362365722656" id="rel814" class="er relationshipLabel">has</text><rect height="14.5" width="18.700000762939453" y="837.75" x="60.64999961853027" class="er relationshipLabelBox"></rect><text style="text-anchor: middle; dominant-baseline: middle; font-size: 12px;" y="845" x="70" id="rel815" class="er relationshipLabel">has</text><rect height="14.5" width="18.700000762939453" y="1017.624267578125" x="70.07636833190918" class="er relationshipLabelBox"></rect><text style="text-anchor: middle; dominant-baseline: middle; font-size: 12px;" y="1024.874267578125" x="79.4263687133789" id="rel816" class="er relationshipLabel">has</text><rect height="14.5" width="18.700000762939453" y="662.7499389648438" x="285.6499996185303" class="er relationshipLabelBox"></rect><text style="text-anchor: middle; dominant-baseline: middle; font-size: 12px;" y="669.9999389648438" x="295" id="rel817" class="er relationshipLabel">has</text></svg>