<svg aria-roledescription="er" role="graphics-document document" viewBox="-50 0 599.3499755859375 1165" style="max-width: 100%;" xmlns="http://www.w3.org/2000/svg" width="100%" id="graph-div" height="100%" xmlns:xlink="http://www.w3.org/1999/xlink"><style>@import url("https://cdnjs.cloudflare.com/ajax/libs/font-awesome/6.4.2/css/all.min.css");'</style><style>#graph-div{font-family:"trebuchet ms",verdana,arial,sans-serif;font-size:16px;fill:#ccc;}#graph-div .error-icon{fill:#a44141;}#graph-div .error-text{fill:#ddd;stroke:#ddd;}#graph-div .edge-thickness-normal{stroke-width:2px;}#graph-div .edge-thickness-thick{stroke-width:3.5px;}#graph-div .edge-pattern-solid{stroke-dasharray:0;}#graph-div .edge-pattern-dashed{stroke-dasharray:3;}#graph-div .edge-pattern-dotted{stroke-dasharray:2;}#graph-div .marker{fill:lightgrey;stroke:lightgrey;}#graph-div .marker.cross{stroke:lightgrey;}#graph-div svg{font-family:"trebuchet ms",verdana,arial,sans-serif;font-size:16px;}#graph-div .entityBox{fill:#1f2020;stroke:#81B1DB;}#graph-div .attributeBoxOdd{fill:hsl(0, 0%, 32%);stroke:#81B1DB;}#graph-div .attributeBoxEven{fill:hsl(0, 0%, 22%);stroke:#81B1DB;}#graph-div .relationshipLabelBox{fill:hsl(20, 1.5873015873%, 12.3529411765%);opacity:0.7;background-color:hsl(20, 1.5873015873%, 12.3529411765%);}#graph-div .relationshipLabelBox rect{opacity:0.5;}#graph-div .relationshipLine{stroke:lightgrey;}#graph-div .entityTitleText{text-anchor:middle;font-size:18px;fill:#ccc;}#graph-div #MD_PARENT_START{fill:#f5f5f5!important;stroke:lightgrey!important;stroke-width:1;}#graph-div #MD_PARENT_END{fill:#f5f5f5!important;stroke:lightgrey!important;stroke-width:1;}#graph-div :root{--mermaid-font-family:"trebuchet ms",verdana,arial,sans-serif;}</style><g></g><defs><marker orient="auto" markerHeight="240" markerWidth="190" refY="7" refX="0" id="MD_PARENT_START"><path d="M 18,7 L9,13 L1,7 L9,1 Z"></path></marker></defs><defs><marker orient="auto" markerHeight="28" markerWidth="20" refY="7" refX="19" id="MD_PARENT_END"><path d="M 18,7 L9,13 L1,7 L9,1 Z"></path></marker></defs><defs><marker orient="auto" markerHeight="18" markerWidth="18" refY="9" refX="0" id="ONLY_ONE_START"><path d="M9,0 L9,18 M15,0 L15,18" fill="none" stroke="gray"></path></marker></defs><defs><marker orient="auto" markerHeight="18" markerWidth="18" refY="9" refX="18" id="ONLY_ONE_END"><path d="M3,0 L3,18 M9,0 L9,18" fill="none" stroke="gray"></path></marker></defs><defs><marker orient="auto" markerHeight="18" markerWidth="30" refY="9" refX="0" id="ZERO_OR_ONE_START"><circle r="6" cy="9" cx="21" fill="white" stroke="gray"></circle><path d="M9,0 L9,18" fill="none" stroke="gray"></path></marker></defs><defs><marker orient="auto" markerHeight="18" markerWidth="30" refY="9" refX="30" id="ZERO_OR_ONE_END"><circle r="6" cy="9" cx="9" fill="white" stroke="gray"></circle><path d="M21,0 L21,18" fill="none" stroke="gray"></path></marker></defs><defs><marker orient="auto" markerHeight="36" markerWidth="45" refY="18" refX="18" id="ONE_OR_MORE_START"><path d="M0,18 Q 18,0 36,18 Q 18,36 0,18 M42,9 L42,27" fill="none" stroke="gray"></path></marker></defs><defs><marker orient="auto" markerHeight="36" markerWidth="45" refY="18" refX="27" id="ONE_OR_MORE_END"><path d="M3,9 L3,27 M9,18 Q27,0 45,18 Q27,36 9,18" fill="none" stroke="gray"></path></marker></defs><defs><marker orient="auto" markerHeight="36" markerWidth="57" refY="18" refX="18" id="ZERO_OR_MORE_START"><circle r="6" cy="18" cx="48" fill="white" stroke="gray"></circle><path d="M0,18 Q18,0 36,18 Q18,36 0,18" fill="none" stroke="gray"></path></marker></defs><defs><marker orient="auto" markerHeight="36" markerWidth="57" refY="18" refX="39" id="ZERO_OR_MORE_END"><circle r="6" cy="18" cx="9" fill="white" stroke="gray"></circle><path d="M21,18 Q39,0 57,18 Q39,36 21,18" fill="none" stroke="gray"></path></marker></defs><path marker-start="url(#ONLY_ONE_START)" marker-end="url(#ONE_OR_MORE_END)" stroke-dasharray="8,8" style="stroke: gray; fill: none;" d="M145,92.5L157.5,101.25C170,110,195,127.5,214.643,144.583C234.286,161.667,248.571,178.333,255.714,186.667L262.857,195" class="er relationshipLine"></path><path marker-start="url(#ONLY_ONE_START)" marker-end="url(#ZERO_OR_MORE_END)" stroke-dasharray="8,8" style="stroke: gray; fill: none;" d="M245,245.962L199.167,258.301C153.333,270.641,61.667,295.321,25.357,315.994C-10.952,336.667,8.095,353.333,17.619,361.667L27.143,370" class="er relationshipLine"></path><path marker-start="url(#ONLY_ONE_START)" marker-end="url(#ONE_OR_MORE_END)" stroke-dasharray="8,8" style="stroke: gray; fill: none;" d="M91.429,445L96.19,453.333C100.952,461.667,110.476,478.333,127.738,495.417C145,512.5,170,530,182.5,538.75L195,547.5" class="er relationshipLine"></path><path marker-start="url(#ZERO_OR_ONE_START)" marker-end="url(#ZERO_OR_ONE_END)" stroke-dasharray="8,8" style="stroke: gray; fill: none;" d="M27.143,445L17.619,453.333C8.095,461.667,-10.952,478.333,-20.476,501.25C-30,524.167,-30,553.333,-30,582.5C-30,611.667,-30,640.833,15.833,667.756C61.667,694.679,153.333,719.359,199.167,731.699L245,744.038" class="er relationshipLine"></path><path marker-start="url(#ONLY_ONE_START)" marker-end="url(#ONE_OR_MORE_END)" stroke-dasharray="8,8" style="stroke: gray; fill: none;" d="M245,620L245,628.333C245,636.667,245,653.333,249.762,670C254.524,686.667,264.048,703.333,268.81,711.667L273.571,720" class="er relationshipLine"></path><path marker-start="url(#ONLY_ONE_START)" marker-end="url(#ZERO_OR_MORE_END)" stroke-dasharray="8,8" style="stroke: gray; fill: none;" d="M295,795L295,803.333C295,811.667,295,828.333,295,845C295,861.667,295,878.333,295,886.667L295,895" class="er relationshipLine"></path><path marker-start="url(#ONLY_ONE_START)" marker-end="url(#ONLY_ONE_END)" stroke-dasharray="8,8" style="stroke: gray; fill: none;" d="M295,970L295,978.333C295,986.667,295,1003.333,307.5,1020.417C320,1037.5,345,1055,357.5,1063.75L370,1072.5" class="er relationshipLine"></path><path marker-start="url(#ONLY_ONE_START)" marker-end="url(#ZERO_OR_MORE_END)" stroke-dasharray="8,8" style="stroke: gray; fill: none;" d="M345,251.944L374.167,263.287C403.333,274.63,461.667,297.315,490.833,323.241C520,349.167,520,378.333,520,407.5C520,436.667,520,465.833,520,495C520,524.167,520,553.333,520,582.5C520,611.667,520,640.833,520,670C520,699.167,520,728.333,520,757.5C520,786.667,520,815.833,520,845C520,874.167,520,903.333,520,932.5C520,961.667,520,990.833,510.476,1013.75C500.952,1036.667,481.905,1053.333,472.381,1061.667L462.857,1070" class="er relationshipLine"></path><path marker-start="url(#ONLY_ONE_START)" marker-end="url(#ZERO_OR_MORE_END)" stroke-dasharray="8,8" style="stroke: gray; fill: none;" d="M295,73.409L257.5,85.341C220,97.273,145,121.136,107.5,147.652C70,174.167,70,203.333,70,232.5C70,261.667,70,290.833,70,313.75C70,336.667,70,353.333,70,361.667L70,370" class="er relationshipLine"></path><path marker-start="url(#ONLY_ONE_START)" marker-end="url(#ZERO_OR_MORE_END)" stroke-dasharray="8,8" style="stroke: gray; fill: none;" d="M387.857,95L397.381,103.333C406.905,111.667,425.952,128.333,418.81,146.389C411.667,164.444,378.333,183.889,361.667,193.611L345,203.333" class="er relationshipLine"></path><path marker-start="url(#ONLY_ONE_START)" marker-end="url(#ZERO_OR_MORE_END)" stroke-dasharray="8,8" style="stroke: gray; fill: none;" d="M245,267.5L232.5,276.25C220,285,195,302.5,172.976,319.583C150.952,336.667,131.905,353.333,122.381,361.667L112.857,370" class="er relationshipLine"></path><path marker-start="url(#ONLY_ONE_START)" marker-end="url(#ZERO_OR_MORE_END)" stroke-dasharray="8,8" style="stroke: gray; fill: none;" d="M284.286,270L281.905,278.333C279.524,286.667,274.762,303.333,272.381,326.25C270,349.167,270,378.333,270,407.5C270,436.667,270,465.833,267.619,488.75C265.238,511.667,260.476,528.333,258.095,536.667L255.714,545" class="er relationshipLine"></path><path marker-start="url(#ONLY_ONE_START)" marker-end="url(#ZERO_OR_MORE_END)" stroke-dasharray="8,8" style="stroke: gray; fill: none;" d="M337.857,270L347.381,278.333C356.905,286.667,375.952,303.333,385.476,326.25C395,349.167,395,378.333,395,407.5C395,436.667,395,465.833,395,495C395,524.167,395,553.333,395,582.5C395,611.667,395,640.833,385.476,663.75C375.952,686.667,356.905,703.333,347.381,711.667L337.857,720" class="er relationshipLine"></path><g transform="translate(45,20 )" id="entity-Player-8a4d8822-5447-5bf3-9bb1-c82c7616821b"><rect height="75" width="100" y="0" x="0" class="er entityBox"></rect><text transform="translate(50,37.5)" style="dominant-baseline: middle; text-anchor: middle; font-size: 12px;" y="0" x="0" id="text-entity-Player-8a4d8822-5447-5bf3-9bb1-c82c7616821b" class="er entityLabel">Player</text></g><g transform="translate(245,195 )" id="entity-Team-bf3f5416-76e3-5dc0-89d0-070d82786f59"><rect height="75" width="100" y="0" x="0" class="er entityBox"></rect><text transform="translate(50,37.5)" style="dominant-baseline: middle; text-anchor: middle; font-size: 12px;" y="0" x="0" id="text-entity-Team-bf3f5416-76e3-5dc0-89d0-070d82786f59" class="er entityLabel">Team</text></g><g transform="translate(20,370 )" id="entity-Match-bb868d25-f1db-5893-b0b3-486d1ccf5a14"><rect height="75" width="100" y="0" x="0" class="er entityBox"></rect><text transform="translate(50,37.5)" style="dominant-baseline: middle; text-anchor: middle; font-size: 12px;" y="0" x="0" id="text-entity-Match-bb868d25-f1db-5893-b0b3-486d1ccf5a14" class="er entityLabel">Match</text></g><g transform="translate(195,545 )" id="entity-Set-52ee8eeb-60bf-544e-b31f-1f23d15fa54d"><rect height="75" width="100" y="0" x="0" class="er entityBox"></rect><text transform="translate(50,37.5)" style="dominant-baseline: middle; text-anchor: middle; font-size: 12px;" y="0" x="0" id="text-entity-Set-52ee8eeb-60bf-544e-b31f-1f23d15fa54d" class="er entityLabel">Set</text></g><g transform="translate(245,720 )" id="entity-Game-87e52c75-2f34-5ffb-97f0-d4ba8ef70a3a"><rect height="75" width="100" y="0" x="0" class="er entityBox"></rect><text transform="translate(50,37.5)" style="dominant-baseline: middle; text-anchor: middle; font-size: 12px;" y="0" x="0" id="text-entity-Game-87e52c75-2f34-5ffb-97f0-d4ba8ef70a3a" class="er entityLabel">Game</text></g><g transform="translate(245,895 )" id="entity-Score-01fee135-3a18-5b98-9402-f2b9a880b901"><rect height="75" width="100" y="0" x="0" class="er entityBox"></rect><text transform="translate(50,37.5)" style="dominant-baseline: middle; text-anchor: middle; font-size: 12px;" y="0" x="0" id="text-entity-Score-01fee135-3a18-5b98-9402-f2b9a880b901" class="er entityLabel">Score</text></g><g transform="translate(370,1070 )" id="entity-Point-db0f8fc7-872b-5a89-b1f3-7a80f13f6b6a"><rect height="75" width="100" y="0" x="0" class="er entityBox"></rect><text transform="translate(50,37.5)" style="dominant-baseline: middle; text-anchor: middle; font-size: 12px;" y="0" x="0" id="text-entity-Point-db0f8fc7-872b-5a89-b1f3-7a80f13f6b6a" class="er entityLabel">Point</text></g><g transform="translate(295,20 )" id="entity-User-818c511a-4a32-5484-ba70-875d765a9175"><rect height="75" width="100" y="0" x="0" class="er entityBox"></rect><text transform="translate(50,37.5)" style="dominant-baseline: middle; text-anchor: middle; font-size: 12px;" y="0" x="0" id="text-entity-User-818c511a-4a32-5484-ba70-875d765a9175" class="er entityLabel">User</text></g><rect height="14.5" width="18.700000762939453" y="131.78036499023438" x="198.74588584899902" class="er relationshipLabelBox"></rect><text style="text-anchor: middle; dominant-baseline: middle; font-size: 12px;" y="139.03036499023438" x="208.09588623046875" id="rel9912" class="er relationshipLabel">has</text><rect height="14.5" width="28.28333282470703" y="279.8282165527344" x="84.83821487426758" class="er relationshipLabelBox"></rect><text style="text-anchor: middle; dominant-baseline: middle; font-size: 12px;" y="287.0782165527344" x="98.9798812866211" id="rel9913" class="er relationshipLabel">plays</text><rect height="14.5" width="18.700000762939453" y="495.9483337402344" x="126.71895408630371" class="er relationshipLabelBox"></rect><text style="text-anchor: middle; dominant-baseline: middle; font-size: 12px;" y="503.1983337402344" x="136.06895446777344" id="rel9914" class="er relationshipLabel">has</text><rect height="14.5" width="45.983333587646484" y="655.777099609375" x="-14.712911605834961" class="er relationshipLabelBox"></rect><text style="text-anchor: middle; dominant-baseline: middle; font-size: 12px;" y="663.027099609375" x="8.278755187988281" id="rel9915" class="er relationshipLabel">tiebreak</text><rect height="14.5" width="18.700000762939453" y="665.1971435546875" x="241.1446132659912" class="er relationshipLabelBox"></rect><text style="text-anchor: middle; dominant-baseline: middle; font-size: 12px;" y="672.4471435546875" x="250.49461364746094" id="rel9916" class="er relationshipLabel">has</text><rect height="14.5" width="18.700000762939453" y="837.75" x="285.6499996185303" class="er relationshipLabelBox"></rect><text style="text-anchor: middle; dominant-baseline: middle; font-size: 12px;" y="845" x="295" id="rel9917" class="er relationshipLabel">has</text><rect height="14.5" width="18.700000762939453" y="1023.96875" x="307.5157527923584" class="er relationshipLabelBox"></rect><text style="text-anchor: middle; dominant-baseline: middle; font-size: 12px;" y="1031.21875" x="316.8657531738281" id="rel9918" class="er relationshipLabel">has</text><rect height="14.5" width="18.700000762939453" y="613.30810546875" x="510.6499996185303" class="er relationshipLabelBox"></rect><text style="text-anchor: middle; dominant-baseline: middle; font-size: 12px;" y="620.55810546875" x="520" id="rel9919" class="er relationshipLabel">has</text><rect height="14.5" width="18.700000762939453" y="150.78970336914062" x="85.42949485778809" class="er relationshipLabelBox"></rect><text style="text-anchor: middle; dominant-baseline: middle; font-size: 12px;" y="158.03970336914062" x="94.77949523925781" id="rel9920" class="er relationshipLabel">has</text><rect height="14.5" width="18.700000762939453" y="151.62637329101562" x="400.94843101501465" class="er relationshipLabelBox"></rect><text style="text-anchor: middle; dominant-baseline: middle; font-size: 12px;" y="158.87637329101562" x="410.2984313964844" id="rel9921" class="er relationshipLabel">has</text><rect height="14.5" width="24.75" y="309.1539306640625" x="164.7269744873047" class="er relationshipLabelBox"></rect><text style="text-anchor: middle; dominant-baseline: middle; font-size: 12px;" y="316.4039306640625" x="177.1019744873047" id="rel9922" class="er relationshipLabel">wins</text><rect height="14.5" width="24.75" y="400.25" x="257.625" class="er relationshipLabelBox"></rect><text style="text-anchor: middle; dominant-baseline: middle; font-size: 12px;" y="407.5" x="270" id="rel9923" class="er relationshipLabel">wins</text><rect height="14.5" width="24.75" y="487.7498779296875" x="382.625" class="er relationshipLabelBox"></rect><text style="text-anchor: middle; dominant-baseline: middle; font-size: 12px;" y="494.9998779296875" x="395" id="rel9924" class="er relationshipLabel">wins</text></svg>